<svg width="75" height="35" viewBox="0 0 75 35" fill="none" xmlns="http://www.w3.org/2000/svg">
<path fill-rule="evenodd" clip-rule="evenodd" d="M50.6071 7.511L50.294 7.88257L47.2512 11.4777L30.6872 30.8894C24.4598 38.2103 17.8948 34.3289 12.7583 28.2985L13.0714 27.932L16.1142 24.3619L28.163 10.2224C29.6795 8.46 31.1764 6.70762 32.6831 4.92009C38.9154 -2.39571 45.495 1.48564 50.6071 7.511Z" fill="#02B1AF"/>
<path fill-rule="evenodd" clip-rule="evenodd" d="M26.6805 7.51056L26.3625 7.88213L23.3198 11.4773L18.7948 16.7645L17.9289 17.7687C11.6917 25.0996 5.13651 21.2183 0 15.1929L0.313083 14.8213L4.22662 10.222H4.25108L8.21842 5.56236C8.38475 5.34143 8.56086 5.1205 8.74186 4.90459C14.9839 -2.39614 21.5244 1.4852 26.6805 7.51056Z" fill="#02B1AF"/>
<path fill-rule="evenodd" clip-rule="evenodd" d="M66.6865 23.7545C67.7508 23.7545 68.7912 24.0784 69.6761 24.6853C70.561 25.2922 71.2507 26.1548 71.658 27.1641C72.0653 28.1733 72.1719 29.2838 71.9642 30.3552C71.7566 31.4266 71.2441 32.4108 70.4916 33.1832C69.739 33.9557 68.7802 34.4817 67.7363 34.6948C66.6925 34.9079 65.6105 34.7986 64.6273 34.3805C63.644 33.9625 62.8036 33.2546 62.2123 32.3463C61.621 31.438 61.3054 30.3701 61.3054 29.2777C61.3131 27.8153 61.8825 26.415 62.89 25.3809C63.8975 24.3468 65.2618 23.7624 66.6865 23.7545Z" fill="#02B1AF"/>
<path fill-rule="evenodd" clip-rule="evenodd" d="M74.5284 7.511L74.2154 7.88257L71.1726 11.4777L54.6085 30.8894C48.3714 38.2103 41.8162 34.3289 36.6895 28.2985L37.0025 27.932L40.0453 24.3619L52.0843 10.2224C53.6008 8.46 55.0977 6.70762 56.6045 4.92009C62.8368 -2.39571 69.3919 1.48564 74.5284 7.511Z" fill="#02B1AF"/>
</svg>
