<svg width="160" height="36" viewBox="0 0 160 36" fill="none" xmlns="http://www.w3.org/2000/svg">
<g clip-path="url(#clip0_24_4289)">
<path d="M153.685 10.1772L159.628 2.55012H154.056L149.595 8.65081V2.55012H145.138V18.5676H149.595V11.7037L154.428 18.5676H160L153.685 10.1772ZM136.357 9.79563H134.176V6.36117H136.357C137.404 6.36117 138.26 6.90847 138.26 8.0784C138.26 9.24832 137.404 9.79563 136.357 9.79563ZM139.63 13.1799C141.587 12.3213 142.722 10.2475 142.722 7.8876C142.722 4.78955 140.838 2.55012 136.778 2.55012H129.714V18.5676H134.176V13.6067H135.017L138.246 18.5676H143.451L139.63 13.1799ZM119.495 14.7515C118.686 14.7515 117.895 14.5052 117.222 14.0437C116.55 13.5822 116.026 12.9264 115.716 12.159C115.407 11.3917 115.326 10.5475 115.484 9.73305C115.642 8.91864 116.032 8.1707 116.605 7.58384C117.177 6.99699 117.907 6.59759 118.7 6.43619C119.494 6.27479 120.316 6.35864 121.063 6.67712C121.811 6.9956 122.449 7.53441 122.898 8.22537C123.347 8.91634 123.586 9.72841 123.585 10.5588C123.583 11.6713 123.152 12.7377 122.385 13.5238C121.618 14.3099 120.579 14.7515 119.495 14.7515ZM119.495 2.16852C114.784 2.16852 110.949 5.93437 110.949 10.5588C110.949 15.1833 114.784 18.9492 119.495 18.9492C124.206 18.9492 128.041 15.1833 128.041 10.5588C128.041 5.93437 124.211 2.16852 119.495 2.16852ZM101.473 2.55012H97.3884L95.1577 12.0903L92.5552 2.55012H87.5654L92.7655 18.5676H97.4129L99.4528 10.9404L101.498 18.5676H106.145L111.345 2.55012H106.306L103.704 12.0903L101.473 2.55012Z" fill="#1F1E1E"/>
<path d="M115.038 21.8258V23.6736H118.336V34.7553H120.136V23.6736H123.438V21.8258H115.038ZM113.238 23.6736V21.8258H106.042V34.7553H113.238V32.9075H107.857V29.2169H112.353V27.3692H107.857V23.6736H113.238ZM103.342 35.0766V21.8258H101.542V30.6781L92.8438 21.5195V34.7553H94.644V25.908L103.342 35.0766Z" fill="#1F1E1E"/>
<path fill-rule="evenodd" clip-rule="evenodd" d="M50.6071 7.51094L50.294 7.88251L47.2512 11.4776L30.6872 30.8894C24.4598 38.2102 17.8948 34.3288 12.7583 28.2985L13.0714 27.9319L16.1142 24.3619L28.163 10.2224C29.6795 8.45994 31.1764 6.70756 32.6831 4.92003C38.9154 -2.39577 45.495 1.48557 50.6071 7.51094Z" fill="#02B1AF"/>
<path fill-rule="evenodd" clip-rule="evenodd" d="M26.6805 7.5105L26.3625 7.88207L23.3198 11.4772L18.7948 16.7645L17.9289 17.7687C11.6917 25.0996 5.13651 21.2182 0 15.1928L0.313083 14.8213L4.22662 10.2219H4.25108L8.21842 5.5623C8.38475 5.34137 8.56086 5.12044 8.74186 4.90453C14.9839 -2.3962 21.5244 1.48514 26.6805 7.5105Z" fill="#02B1AF"/>
<path fill-rule="evenodd" clip-rule="evenodd" d="M66.6865 23.7544C67.7508 23.7544 68.7912 24.0783 69.6761 24.6852C70.561 25.2921 71.2507 26.1547 71.658 27.164C72.0653 28.1732 72.1719 29.2838 71.9642 30.3552C71.7566 31.4266 71.2441 32.4107 70.4916 33.1832C69.739 33.9556 68.7802 34.4817 67.7363 34.6948C66.6925 34.9079 65.6105 34.7985 64.6273 34.3805C63.644 33.9624 62.8036 33.2545 62.2123 32.3462C61.621 31.4379 61.3054 30.37 61.3054 29.2776C61.3131 27.8152 61.8825 26.415 62.89 25.3809C63.8975 24.3468 65.2618 23.7623 66.6865 23.7544Z" fill="#02B1AF"/>
<path fill-rule="evenodd" clip-rule="evenodd" d="M74.5284 7.51094L74.2154 7.88251L71.1726 11.4776L54.6085 30.8894C48.3714 38.2102 41.8162 34.3288 36.6895 28.2985L37.0025 27.9319L40.0453 24.3619L52.0843 10.2224C53.6008 8.45994 55.0977 6.70756 56.6045 4.92003C62.8368 -2.39577 69.3919 1.48557 74.5284 7.51094Z" fill="#02B1AF"/>
</g>
<defs>
<clipPath id="clip0_24_4289">
<rect width="160" height="34.1337" fill="white" transform="translate(0 0.933105)"/>
</clipPath>
</defs>
</svg>
