<svg width="17" height="17" viewBox="0 0 17 17" fill="none" xmlns="http://www.w3.org/2000/svg">
<path fill-rule="evenodd" clip-rule="evenodd" d="M4.97442 3.22266C2.76053 3.22266 0.96582 5.01737 0.96582 7.23126V12.0416C0.96582 14.2555 2.76053 16.0502 4.97442 16.0502H12.9916C15.0878 16.0502 16.8082 14.4412 16.9852 12.3909H13.3925C11.8713 12.3909 10.6382 11.1578 10.6382 9.63662C10.6382 9.22999 10.7263 8.84395 10.8845 8.49653C10.552 8.41965 10.3041 8.12167 10.3041 7.76581C10.3041 7.35159 10.6399 7.01581 11.0541 7.01581H11.1878C11.4572 7.01581 11.6934 7.15785 11.8256 7.37112C12.2704 7.06291 12.8104 6.88232 13.3925 6.88232H16.9852C16.8084 4.83182 15.0879 3.22266 12.9916 3.22266H4.97442ZM13.3925 8.38232H17.0002V10.8909H13.3925C12.6998 10.8909 12.1382 10.3293 12.1382 9.63662C12.1382 8.94389 12.6998 8.38232 13.3925 8.38232ZM3.37101 9.35416C2.9568 9.35416 2.62101 9.68994 2.62101 10.1042C2.62101 10.5184 2.9568 10.8542 3.37101 10.8542H7.37961C7.79382 10.8542 8.12961 10.5184 8.12961 10.1042C8.12961 9.68994 7.79382 9.35416 7.37961 9.35416H3.37101Z" fill="#999BA7"/>
<path d="M14.9861 2.41554C14.408 0.819017 12.7195 -0.211711 10.9403 0.154592L4.04495 1.57423C2.60475 1.87074 1.43794 2.82015 0.827637 4.07512C1.77965 2.82625 3.28298 2.02028 4.97454 2.02028H12.9917C13.6982 2.02028 14.3718 2.16085 14.9861 2.41554Z" fill="#999BA7"/>
</svg>
