<svg width="73" height="25" viewBox="0 0 73 25" fill="none" xmlns="http://www.w3.org/2000/svg">
<path d="M4.87539 15.4999V12.8312M10.2087 15.4999V12.8312M15.5421 15.4999V12.8312M20.8754 15.4999V12.8312M3.27539 18.8999H22.4754V22.0999H3.27539V18.8999ZM3.27539 9.2999V7.16657L12.4809 2.8999L22.4754 7.16657V9.2999H3.27539Z" stroke="#3643D6" stroke-width="2" stroke-linecap="round" stroke-linejoin="round"/>
<path d="M37.227 7.3C39.611 7.3 41.083 8.372 41.083 10.1C41.083 11.332 40.347 12.276 39.131 12.58C40.619 12.852 41.515 13.924 41.515 15.412C41.515 17.332 39.931 18.5 37.371 18.5H32.251V7.3H37.227ZM37.115 11.876C38.219 11.876 38.891 11.364 38.891 10.484C38.891 9.636 38.219 9.14 37.115 9.156H34.395V11.876H37.115ZM37.115 16.644C38.475 16.66 39.291 16.1 39.291 15.14C39.291 14.228 38.475 13.668 37.115 13.684H34.395V16.644H37.115ZM50.6188 18.5H48.5708V17.46C47.9788 18.212 47.0188 18.596 45.8028 18.596C43.9628 18.596 42.8108 17.46 42.8108 15.94C42.8108 14.356 43.9788 13.38 46.0588 13.364H48.5548V13.14C48.5548 12.148 47.8988 11.556 46.6188 11.556C45.8188 11.556 44.9548 11.828 44.0748 12.356L43.3228 10.916C44.5548 10.228 45.5148 9.86 47.0828 9.86C49.3228 9.86 50.5868 10.996 50.6028 12.9L50.6188 18.5ZM46.2988 16.996C47.4988 16.996 48.4428 16.356 48.5548 15.524V14.756H46.3948C45.2908 14.756 44.7788 15.06 44.7788 15.812C44.7788 16.532 45.3548 16.996 46.2988 16.996ZM58.1043 9.86C60.0723 9.86 61.2723 11.124 61.2723 13.156V18.5H59.1763V13.764C59.1763 12.564 58.4563 11.828 57.2723 11.828C55.8643 11.844 55.0323 12.884 55.0323 14.292V18.5H52.9523V9.94H55.0323V11.54C55.6403 10.404 56.7123 9.876 58.1043 9.86ZM69.4005 18.5L67.0805 14.756L65.7685 16.132V18.5H63.6885V6.628H65.7685V13.508L69.2885 9.956H71.6885L68.5205 13.252L71.8805 18.5H69.4005Z" fill="#3643D6"/>
</svg>
