<svg width="18" height="18" viewBox="0 0 18 18" fill="none" xmlns="http://www.w3.org/2000/svg">
<path fill-rule="evenodd" clip-rule="evenodd" d="M0.25 9.125C0.25 4.22347 4.22347 0.25 9.125 0.25C14.0265 0.25 18 4.22347 18 9.125C18 14.0265 14.0265 18 9.125 18C4.22347 18 0.25 14.0265 0.25 9.125ZM9.875 5.82276C9.875 5.40855 9.53921 5.07276 9.125 5.07276C8.71079 5.07276 8.375 5.40855 8.375 5.82276V8.85749C8.375 9.27543 8.58388 9.66572 8.93162 9.89756L11.1857 11.4003C11.5304 11.6301 11.996 11.5369 12.2258 11.1923C12.4555 10.8476 12.3624 10.382 12.0178 10.1522L9.875 8.7237V5.82276Z" fill="#999BA7"/>
</svg>
