<svg width="18" height="17" viewBox="0 0 18 17" fill="none" xmlns="http://www.w3.org/2000/svg">
<path d="M16.1557 1.80714L17.5683 5.62971C17.8407 6.37845 17.7388 7.21229 17.2941 7.87339C16.7896 8.60884 15.9666 9.06194 15.0754 9.09495C13.6844 9.2012 12.4285 8.26458 12.1336 6.90113C12.1336 6.90113 12.0838 6.90113 12.0755 6.90113C11.8 8.22337 10.6078 9.15181 9.25841 9.09495C7.91515 9.1435 6.7324 8.21695 6.45797 6.90113C6.45797 6.90113 6.40811 6.90113 6.3998 6.90113C6.23892 7.63236 5.79356 8.26946 5.16209 8.67173C4.53062 9.074 3.76498 9.20834 3.03428 9.04509C2.38478 8.93834 1.7951 8.60222 1.3723 8.09776C0.824068 7.40338 0.684921 6.47046 1.00666 5.64633L2.38611 1.80714C2.71019 0.99004 3.51009 0.46231 4.3888 0.485865H14.153C15.0317 0.46231 15.8316 0.99004 16.1557 1.80714Z" fill="#23BA97"/>
<path d="M15.1585 10.3664V14.6044C15.1454 15.0695 14.9481 15.5104 14.6098 15.8299C14.2716 16.1494 13.8203 16.3214 13.3552 16.308H11.0035V13.6903C10.9587 12.8166 10.2154 12.1439 9.34151 12.1862C8.90964 12.1815 8.49164 12.3386 8.16981 12.6267C7.86018 12.8936 7.68136 13.2815 7.67953 13.6903V16.308H5.32782C4.85708 16.3214 4.40074 16.1449 4.06155 15.8182C3.72236 15.4915 3.52884 15.0421 3.52457 14.5712V10.3664H3.59105C4.63256 10.3684 5.63834 9.98675 6.41642 9.29438C8.04718 10.717 10.478 10.717 12.1087 9.29438C12.8898 9.99265 13.903 10.3748 14.9507 10.3664H15.1585Z" fill="#23BA97"/>
</svg>
