<svg width="88" height="25" viewBox="0 0 88 25" fill="none" xmlns="http://www.w3.org/2000/svg">
<path d="M8.52459 7.6999H15.7246M8.52459 11.2999H15.7246M8.52459 14.8999H12.1246M6.72431 2.8999H17.5245C18.85 2.8999 19.9246 3.97445 19.9245 5.29995L19.9243 19.7C19.9242 21.0254 18.8497 22.0999 17.5243 22.0999L6.72421 22.0998C5.39872 22.0998 4.32421 21.0253 4.32422 19.6998L4.32431 5.29989C4.32432 3.97441 5.39883 2.8999 6.72431 2.8999Z" stroke="#23BA97" stroke-width="2" stroke-linecap="round" stroke-linejoin="round"/>
<path d="M31.501 7.3H33.645V18.5H31.501V7.3ZM41.4636 9.86C43.4316 9.86 44.6316 11.124 44.6316 13.156V18.5H42.5356V13.764C42.5356 12.564 41.8156 11.828 40.6316 11.828C39.2236 11.844 38.3916 12.884 38.3916 14.292V18.5H36.3116V9.94H38.3916V11.54C38.9996 10.404 40.0716 9.876 41.4636 9.86ZM45.4371 9.956L47.6131 9.94L49.8531 16.452L52.0451 9.94H54.1411L50.8771 18.5H48.7331L45.4371 9.956ZM58.79 9.876C61.462 9.876 63.286 11.62 63.286 14.212C63.286 16.82 61.462 18.58 58.79 18.58C56.086 18.58 54.262 16.82 54.262 14.212C54.262 11.62 56.086 9.876 58.79 9.876ZM58.79 11.652C57.35 11.652 56.358 12.708 56.358 14.244C56.358 15.78 57.35 16.836 58.79 16.836C60.198 16.836 61.19 15.78 61.19 14.244C61.19 12.708 60.198 11.652 58.79 11.652ZM66.1329 6.26C66.8049 6.26 67.3169 6.772 67.3169 7.508C67.3169 8.212 66.8049 8.74 66.1329 8.74C65.4609 8.74 64.9489 8.212 64.9489 7.508C64.9489 6.772 65.4609 6.26 66.1329 6.26ZM65.0929 9.94H67.1729V18.5H65.0929V9.94ZM75.6371 12.644C75.0931 12.052 74.3411 11.7 73.3971 11.7C72.0211 11.7 71.0611 12.724 71.0611 14.228C71.0611 15.764 72.0211 16.788 73.3971 16.788C74.3891 16.788 75.1891 16.452 75.7011 15.78L76.9971 16.852C76.2451 17.94 74.9651 18.58 73.2851 18.58C70.7251 18.58 68.9651 16.82 68.9651 14.244C68.9651 11.636 70.7411 9.876 73.3171 9.876C74.8851 9.876 76.1331 10.452 76.9011 11.444L75.6371 12.644ZM82.0515 9.876C85.0595 9.876 86.3555 11.844 86.1475 14.948H79.8275C80.0995 16.164 81.0275 16.9 82.2755 16.9C83.1555 16.9 83.9715 16.564 84.5795 15.94L85.6995 17.108C84.8515 18.036 83.6035 18.58 82.0995 18.58C79.4435 18.58 77.6995 16.82 77.6995 14.244C77.6995 11.636 79.4915 9.876 82.0515 9.876ZM79.7795 13.556H84.2595C84.2115 12.292 83.3635 11.492 82.0675 11.492C80.8355 11.492 79.9715 12.292 79.7795 13.556Z" fill="#23BA97"/>
</svg>
