<svg width="106" height="48" viewBox="0 0 106 48" fill="none" xmlns="http://www.w3.org/2000/svg">
<path fill-rule="evenodd" clip-rule="evenodd" d="M71.8632 9.30589L71.4206 9.8312L67.1188 14.9139L43.7009 42.3577C34.8968 52.7077 25.6154 47.2204 18.3535 38.6948L18.7961 38.1766L23.0979 33.1293L40.1322 13.1392C42.2762 10.6476 44.3925 8.17009 46.5227 5.64293C55.3338 -4.69997 64.6359 0.787372 71.8632 9.30589Z" fill="#02B1AF"/>
<path fill-rule="evenodd" clip-rule="evenodd" d="M38.0367 9.30517L37.5871 9.83048L33.2853 14.9132L26.888 22.3882L25.6638 23.8079C16.8458 34.1721 7.57828 28.6848 0.316406 20.1663L0.759035 19.641L6.29189 13.1385H6.32647L11.9354 6.55085C12.1706 6.23851 12.4195 5.92616 12.6754 5.62092C21.5003 -4.70068 30.7471 0.78666 38.0367 9.30517Z" fill="#02B1AF"/>
<path fill-rule="evenodd" clip-rule="evenodd" d="M94.596 32.2705C96.1006 32.2705 97.5715 32.7285 98.8226 33.5865C100.074 34.4445 101.049 35.6641 101.625 37.0909C102.2 38.5178 102.351 40.0878 102.057 41.6025C101.764 43.1173 101.039 44.5086 99.9754 45.6007C98.9115 46.6927 97.5559 47.4364 96.0801 47.7377C94.6044 48.039 93.0748 47.8844 91.6846 47.2934C90.2945 46.7024 89.1064 45.7015 88.2704 44.4174C87.4345 43.1333 86.9883 41.6235 86.9883 40.0791C86.9992 38.0116 87.8042 36.0319 89.2286 34.57C90.6529 33.108 92.5816 32.2817 94.596 32.2705Z" fill="#02B1AF"/>
<path fill-rule="evenodd" clip-rule="evenodd" d="M105.683 9.30589L105.241 9.8312L100.939 14.9139L77.5211 42.3577C68.7031 52.7077 59.4355 47.2204 52.1875 38.6948L52.6301 38.1766L56.9319 33.1293L73.9524 13.1392C76.0964 10.6476 78.2127 8.17009 80.3428 5.64293C89.1539 -4.69997 98.4215 0.787372 105.683 9.30589Z" fill="#02B1AF"/>
</svg>
