<svg width="18" height="16" viewBox="0 0 18 16" fill="none" xmlns="http://www.w3.org/2000/svg">
<path d="M6.03611 7.83665H6.10259C7.93837 7.83665 9.42656 6.34845 9.42656 4.51268V3.20802C9.42438 2.4624 9.12494 1.74843 8.59459 1.22432C8.06424 0.700213 7.34678 0.409242 6.60118 0.415883H5.50427C3.96411 0.420446 2.7167 1.66786 2.71214 3.20802V4.51268C2.71214 6.34845 4.20033 7.83665 6.03611 7.83665Z" fill="#23BA97"/>
<path d="M13.166 7.2134C14.5429 7.2134 15.659 6.09726 15.659 4.72042V3.76478C15.659 2.6147 14.7316 1.67981 13.5815 1.67068H12.7505C11.6005 1.67981 10.673 2.6147 10.6731 3.76478V4.72042C10.6731 6.09726 11.7892 7.2134 13.166 7.2134Z" fill="#23BA97"/>
<path d="M17.2296 10.6786L17.0966 10.0222C16.9395 9.12095 16.1583 8.46241 15.2435 8.45989H10.1745C9.55499 8.46121 8.97754 8.77334 8.63712 9.29088H2.77862C2.19084 9.29131 1.62566 9.51738 1.19973 9.92244C0.833788 10.2578 0.576267 10.6947 0.460148 11.1772C0.460148 11.2188 0.460148 11.2603 0.460148 11.2936V11.5096L0.285639 12.1744C0.107902 12.9017 0.266457 13.6704 0.717485 14.268C1.16851 14.8656 1.86425 15.2289 2.61242 15.2574H9.49304C9.66961 15.2568 9.84544 15.2345 10.0166 15.1909H10.1246C10.2495 15.1554 10.3717 15.1109 10.4902 15.058L10.6232 14.9832C10.7224 14.9272 10.8169 14.8633 10.9057 14.7921L11.0387 14.684C11.1204 14.6078 11.1981 14.5274 11.2714 14.443C11.2714 14.4015 11.3462 14.3682 11.3794 14.3184C11.4723 14.1964 11.553 14.0656 11.6204 13.9278C11.6558 13.8523 11.6864 13.7746 11.7118 13.6951C11.7445 13.6194 11.7722 13.5417 11.7949 13.4625C11.7949 13.3794 11.8364 13.2963 11.8531 13.2132V13.0885H15.4097C15.9965 13.0711 16.5438 12.7885 16.8975 12.32C17.2513 11.8515 17.3735 11.2478 17.2296 10.6786Z" fill="#23BA97"/>
</svg>
