<svg width="18" height="18" viewBox="0 0 18 18" fill="none" xmlns="http://www.w3.org/2000/svg">
<path fill-rule="evenodd" clip-rule="evenodd" d="M7.31005 0.590088H10.8335C12.5966 0.590088 14.2875 1.29049 15.5343 2.53722C16.781 3.78396 17.4814 5.47488 17.4814 7.23803V10.7614C17.4814 14.433 14.505 17.4094 10.8335 17.4094H7.31005C3.63849 17.4094 0.662109 14.433 0.662109 10.7614V7.23803C0.662109 3.56647 3.63849 0.590088 7.31005 0.590088ZM12.6201 9.62298H14.0577V9.64791C14.4019 9.64791 14.681 9.36887 14.681 9.02466C14.681 8.68045 14.4019 8.40142 14.0577 8.40142H12.6035C12.1733 8.39999 11.7605 8.57053 11.4567 8.87508L9.67007 10.6617V6.50675C9.7507 6.12255 9.55147 5.73433 9.19232 5.57582C8.83317 5.41732 8.41209 5.53177 8.18259 5.85027L5.78933 8.26015C5.71798 8.33523 5.61868 8.37736 5.51511 8.37649H4.0858C3.74159 8.37649 3.46255 8.65552 3.46255 8.99973C3.46255 9.34394 3.74159 9.62298 4.0858 9.62298H5.51511C5.94823 9.61897 6.36267 9.44604 6.67019 9.141L8.41527 7.35437V11.5093C8.39236 11.8751 8.61181 12.2128 8.95542 12.3403C9.05984 12.3871 9.17343 12.4098 9.28781 12.4068C9.51881 12.4057 9.73995 12.3131 9.90275 12.1492L12.3542 9.731C12.4263 9.66325 12.5211 9.62474 12.6201 9.62298Z" fill="#23BA97"/>
</svg>
